<svg width="365" height="158" viewBox="0 0 365 158" fill="none" xmlns="http://www.w3.org/2000/svg">
<path d="M0 0H365V153C365 155.761 362.761 158 360 158H5C2.23858 158 0 155.761 0 153V0Z" fill="#F5F5F5"/>
<path d="M96.7052 66.3407H99.3579C99.3195 64.0076 97.4019 62.3968 94.4871 62.3968C91.6171 62.3968 89.5141 63.982 89.5269 66.3598C89.5205 68.2902 90.882 69.3961 93.0937 69.9266L94.5191 70.2846C95.9445 70.6297 96.7371 71.0388 96.7435 71.9209C96.7371 72.8797 95.8295 73.5317 94.4232 73.5317C92.985 73.5317 91.9495 72.8669 91.86 71.5566H89.1817C89.252 74.3883 91.2783 75.852 94.4552 75.852C97.6512 75.852 99.5305 74.3243 99.5368 71.9273C99.5305 69.7476 97.8877 68.5907 95.6121 68.0793L94.436 67.7981C93.2982 67.536 92.3458 67.1141 92.365 66.1745C92.365 65.3307 93.1128 64.7107 94.468 64.7107C95.7911 64.7107 96.6029 65.3115 96.7052 66.3407ZM107.644 71.4863C107.65 72.803 106.749 73.4934 105.771 73.4934C104.742 73.4934 104.077 72.7711 104.07 71.6141V65.8485H101.347V72.0999C101.354 74.3946 102.696 75.7945 104.671 75.7945C106.148 75.7945 107.209 75.0339 107.65 73.8833H107.752V75.6667H110.367V65.8485H107.644V71.4863ZM115.344 75.852C116.795 75.852 117.735 75.2192 118.214 74.3052H118.291V75.6667H120.873V69.0445C120.873 66.705 118.892 65.7206 116.706 65.7206C114.354 65.7206 112.807 66.8456 112.43 68.6354L114.948 68.84C115.133 68.188 115.715 67.7086 116.693 67.7086C117.62 67.7086 118.15 68.1752 118.15 68.9806V69.0189C118.15 69.6517 117.479 69.7348 115.773 69.901C113.829 70.08 112.084 70.732 112.084 72.9245C112.084 74.8677 113.472 75.852 115.344 75.852ZM116.124 73.9728C115.287 73.9728 114.686 73.5829 114.686 72.835C114.686 72.0679 115.319 71.6908 116.278 71.5566C116.872 71.4735 117.844 71.3329 118.17 71.1155V72.1574C118.17 73.1866 117.32 73.9728 116.124 73.9728ZM135.321 68.6482C135.078 66.8392 133.621 65.7206 131.141 65.7206C128.629 65.7206 126.973 66.884 126.979 68.776C126.973 70.2462 127.9 71.1986 129.818 71.5821L131.518 71.9209C132.374 72.0935 132.764 72.4067 132.777 72.8989C132.764 73.4806 132.131 73.8961 131.179 73.8961C130.207 73.8961 129.562 73.4806 129.396 72.6816L126.717 72.8222C126.973 74.7015 128.571 75.8584 131.173 75.8584C133.717 75.8584 135.538 74.5608 135.545 72.6241C135.538 71.205 134.612 70.3549 132.707 69.965L130.93 69.607C130.016 69.4089 129.677 69.0956 129.683 68.6226C129.677 68.0346 130.342 67.651 131.185 67.651C132.131 67.651 132.694 68.1688 132.828 68.8016L135.321 68.6482ZM140.059 75.852C141.51 75.852 142.45 75.2192 142.929 74.3052H143.006V75.6667H145.588V69.0445C145.588 66.705 143.607 65.7206 141.421 65.7206C139.068 65.7206 137.522 66.8456 137.144 68.6354L139.663 68.84C139.848 68.188 140.43 67.7086 141.408 67.7086C142.335 67.7086 142.865 68.1752 142.865 68.9806V69.0189C142.865 69.6517 142.194 69.7348 140.487 69.901C138.544 70.08 136.799 70.732 136.799 72.9245C136.799 74.8677 138.186 75.852 140.059 75.852ZM140.839 73.9728C140.002 73.9728 139.401 73.5829 139.401 72.835C139.401 72.0679 140.034 71.6908 140.992 71.5566C141.587 71.4735 142.559 71.3329 142.884 71.1155V72.1574C142.884 73.1866 142.034 73.9728 140.839 73.9728ZM152.137 75.8584C154.751 75.8584 156.394 74.3243 156.522 72.0679H153.952C153.793 73.1162 153.102 73.7043 152.169 73.7043C150.897 73.7043 150.072 72.6368 150.072 70.7576C150.072 68.9039 150.903 67.8428 152.169 67.8428C153.166 67.8428 153.805 68.5012 153.952 69.4792H156.522C156.407 67.21 154.687 65.7206 152.124 65.7206C149.146 65.7206 147.305 67.7853 147.305 70.7959C147.305 73.781 149.114 75.8584 152.137 75.8584ZM162.701 75.8584C165.68 75.8584 167.534 73.8194 167.534 70.7959C167.534 67.7533 165.68 65.7206 162.701 65.7206C159.723 65.7206 157.869 67.7533 157.869 70.7959C157.869 73.8194 159.723 75.8584 162.701 75.8584ZM162.714 73.7491C161.34 73.7491 160.637 72.4898 160.637 70.7767C160.637 69.0637 161.34 67.7981 162.714 67.7981C164.063 67.7981 164.766 69.0637 164.766 70.7767C164.766 72.4898 164.063 73.7491 162.714 73.7491ZM172.027 62.5758H169.304V75.6667H172.027V62.5758ZM177.008 75.852C178.459 75.852 179.399 75.2192 179.878 74.3052H179.955V75.6667H182.538V69.0445C182.538 66.705 180.556 65.7206 178.37 65.7206C176.018 65.7206 174.471 66.8456 174.094 68.6354L176.612 68.84C176.797 68.188 177.379 67.7086 178.357 67.7086C179.284 67.7086 179.815 68.1752 179.815 68.9806V69.0189C179.815 69.6517 179.143 69.7348 177.437 69.901C175.494 70.08 173.748 70.732 173.748 72.9245C173.748 74.8677 175.136 75.852 177.008 75.852ZM177.788 73.9728C176.951 73.9728 176.35 73.5829 176.35 72.835C176.35 72.0679 176.983 71.6908 177.942 71.5566C178.536 71.4735 179.508 71.3329 179.834 71.1155V72.1574C179.834 73.1866 178.984 73.9728 177.788 73.9728ZM193.291 75.8584C195.72 75.8584 197.356 74.6759 197.739 72.8542L195.221 72.688C194.946 73.4358 194.243 73.8258 193.335 73.8258C191.974 73.8258 191.111 72.9245 191.111 71.4607V71.4543H197.797V70.7064C197.797 67.3698 195.777 65.7206 193.182 65.7206C190.293 65.7206 188.42 67.7725 188.42 70.8023C188.42 73.9152 190.267 75.8584 193.291 75.8584ZM191.111 69.7668C191.168 68.6482 192.019 67.7533 193.227 67.7533C194.409 67.7533 195.227 68.5971 195.234 69.7668H191.111ZM207.743 68.6482C207.5 66.8392 206.043 65.7206 203.563 65.7206C201.051 65.7206 199.395 66.884 199.401 68.776C199.395 70.2462 200.322 71.1986 202.239 71.5821L203.94 71.9209C204.796 72.0935 205.186 72.4067 205.199 72.8989C205.186 73.4806 204.553 73.8961 203.601 73.8961C202.629 73.8961 201.984 73.4806 201.818 72.6816L199.139 72.8222C199.395 74.7015 200.993 75.8584 203.595 75.8584C206.139 75.8584 207.96 74.5608 207.967 72.6241C207.96 71.205 207.033 70.3549 205.129 69.965L203.352 69.607C202.438 69.4089 202.099 69.0956 202.105 68.6226C202.099 68.0346 202.764 67.651 203.607 67.651C204.553 67.651 205.116 68.1688 205.25 68.8016L207.743 68.6482ZM214.904 65.8485H213.056V63.4962H210.333V65.8485H208.991V67.8939H210.333V73.0076C210.321 74.9316 211.631 75.884 213.606 75.8009C214.309 75.7753 214.808 75.6347 215.083 75.5452L214.654 73.5189C214.52 73.5445 214.233 73.6084 213.977 73.6084C213.434 73.6084 213.056 73.4039 213.056 72.6496V67.8939H214.904V65.8485ZM219.477 75.852C220.928 75.852 221.868 75.2192 222.347 74.3052H222.424V75.6667H225.006V69.0445C225.006 66.705 223.025 65.7206 220.839 65.7206C218.486 65.7206 216.94 66.8456 216.562 68.6354L219.081 68.84C219.266 68.188 219.848 67.7086 220.826 67.7086C221.753 67.7086 222.283 68.1752 222.283 68.9806V69.0189C222.283 69.6517 221.612 69.7348 219.905 69.901C217.962 70.08 216.217 70.732 216.217 72.9245C216.217 74.8677 217.604 75.852 219.477 75.852ZM220.257 73.9728C219.42 73.9728 218.819 73.5829 218.819 72.835C218.819 72.0679 219.452 71.6908 220.41 71.5566C221.005 71.4735 221.976 71.3329 222.302 71.1155V72.1574C222.302 73.1866 221.452 73.9728 220.257 73.9728ZM219.963 64.5829H221.887L223.837 61.6745H221.318L219.963 64.5829ZM240.438 65.8485H237.555L235.523 72.8733H235.421L233.381 65.8485H230.505L233.938 75.6667H237.006L240.438 65.8485ZM244.35 75.852C245.801 75.852 246.741 75.2192 247.22 74.3052H247.297V75.6667H249.879V69.0445C249.879 66.705 247.898 65.7206 245.712 65.7206C243.359 65.7206 241.813 66.8456 241.435 68.6354L243.954 68.84C244.139 68.188 244.721 67.7086 245.699 67.7086C246.626 67.7086 247.156 68.1752 247.156 68.9806V69.0189C247.156 69.6517 246.485 69.7348 244.778 69.901C242.835 70.08 241.09 70.732 241.09 72.9245C241.09 74.8677 242.477 75.852 244.35 75.852ZM245.13 73.9728C244.293 73.9728 243.692 73.5829 243.692 72.835C243.692 72.0679 244.325 71.6908 245.283 71.5566C245.878 71.4735 246.85 71.3329 247.176 71.1155V72.1574C247.176 73.1866 246.325 73.9728 245.13 73.9728ZM251.941 75.6667H260.193V73.4934H255.514V73.4231L260.027 67.6191V65.8485H252.107V68.0218H256.748V68.0921L251.941 74.0431V75.6667ZM262.275 75.6667H264.998V65.8485H262.275V75.6667ZM263.643 64.5829C264.455 64.5829 265.12 63.9628 265.12 63.2022C265.12 62.4479 264.455 61.8279 263.643 61.8279C262.838 61.8279 262.173 62.4479 262.173 63.2022C262.173 63.9628 262.838 64.5829 263.643 64.5829ZM269.979 75.852C271.43 75.852 272.37 75.2192 272.849 74.3052H272.926V75.6667H275.508V69.0445C275.508 66.705 273.527 65.7206 271.341 65.7206C268.988 65.7206 267.441 66.8456 267.064 68.6354L269.583 68.84C269.768 68.188 270.35 67.7086 271.328 67.7086C272.255 67.7086 272.785 68.1752 272.785 68.9806V69.0189C272.785 69.6517 272.114 69.7348 270.407 69.901C268.464 70.08 266.719 70.732 266.719 72.9245C266.719 74.8677 268.106 75.852 269.979 75.852ZM270.759 73.9728C269.922 73.9728 269.321 73.5829 269.321 72.835C269.321 72.0679 269.954 71.6908 270.912 71.5566C271.507 71.4735 272.478 71.3329 272.804 71.1155V72.1574C272.804 73.1866 271.954 73.9728 270.759 73.9728Z" fill="#333333"/>
<path d="M137.536 107L138.56 104.116H142.677L143.701 107H144.994L141.255 96.8182H139.982L136.244 107H137.536ZM138.948 103.023L140.579 98.429H140.658L142.289 103.023H138.948ZM149.304 107.159C150.776 107.159 151.273 106.244 151.531 105.827H151.671V107H152.804V96.8182H151.631V100.577H151.531C151.273 100.179 150.815 99.2642 149.324 99.2642C147.395 99.2642 146.063 100.795 146.063 103.202C146.063 105.628 147.395 107.159 149.304 107.159ZM149.463 106.105C147.992 106.105 147.236 104.812 147.236 103.182C147.236 101.571 147.972 100.318 149.463 100.318C150.895 100.318 151.651 101.472 151.651 103.182C151.651 104.912 150.875 106.105 149.463 106.105ZM155.116 107H156.289V99.3636H155.116V107ZM155.712 98.0909C156.17 98.0909 156.548 97.733 156.548 97.2955C156.548 96.858 156.17 96.5 155.712 96.5C155.255 96.5 154.877 96.858 154.877 97.2955C154.877 97.733 155.255 98.0909 155.712 98.0909ZM161.54 107.159C163.231 107.159 164.344 106.125 164.543 104.773H163.37C163.151 105.608 162.455 106.105 161.54 106.105C160.148 106.105 159.253 104.952 159.253 103.182C159.253 101.452 160.168 100.318 161.54 100.318C162.574 100.318 163.191 100.955 163.37 101.651H164.543C164.344 100.219 163.131 99.2642 161.521 99.2642C159.452 99.2642 158.08 100.895 158.08 103.222C158.08 105.509 159.393 107.159 161.54 107.159ZM166.258 107H167.432V99.3636H166.258V107ZM166.855 98.0909C167.312 98.0909 167.69 97.733 167.69 97.2955C167.69 96.858 167.312 96.5 166.855 96.5C166.398 96.5 166.02 96.858 166.02 97.2955C166.02 97.733 166.398 98.0909 166.855 98.0909ZM172.683 107.159C174.751 107.159 176.143 105.588 176.143 103.222C176.143 100.835 174.751 99.2642 172.683 99.2642C170.615 99.2642 169.223 100.835 169.223 103.222C169.223 105.588 170.615 107.159 172.683 107.159ZM172.683 106.105C171.112 106.105 170.396 104.753 170.396 103.222C170.396 101.69 171.112 100.318 172.683 100.318C174.254 100.318 174.97 101.69 174.97 103.222C174.97 104.753 174.254 106.105 172.683 106.105ZM179.108 102.406C179.108 101.074 179.933 100.318 181.056 100.318C182.145 100.318 182.806 101.029 182.806 102.227V107H183.98V102.148C183.98 100.199 182.941 99.2642 181.394 99.2642C180.241 99.2642 179.525 99.7812 179.167 100.557H179.068V99.3636H177.934V107H179.108V102.406ZM189.325 107.159C190.877 107.159 192.01 106.384 192.368 105.23L191.234 104.912C190.936 105.707 190.245 106.105 189.325 106.105C187.948 106.105 186.999 105.215 186.944 103.58H192.487V103.082C192.487 100.239 190.797 99.2642 189.206 99.2642C187.138 99.2642 185.766 100.895 185.766 103.241C185.766 105.588 187.118 107.159 189.325 107.159ZM186.944 102.565C187.024 101.377 187.864 100.318 189.206 100.318C190.479 100.318 191.294 101.273 191.294 102.565H186.944ZM198.21 107H199.383V99.3636H198.21V107ZM198.806 98.0909C199.264 98.0909 199.641 97.733 199.641 97.2955C199.641 96.858 199.264 96.5 198.806 96.5C198.349 96.5 197.971 96.858 197.971 97.2955C197.971 97.733 198.349 98.0909 198.806 98.0909ZM204.853 99.3636H203.222V97.5341H202.049V99.3636H200.896V100.358H202.049V105.131C202.049 106.463 203.123 107.099 204.117 107.099C204.555 107.099 204.833 107.02 204.992 106.96L204.753 105.906C204.654 105.926 204.495 105.966 204.236 105.966C203.719 105.966 203.222 105.807 203.222 104.812V100.358H204.853V99.3636ZM209.737 107.159C211.289 107.159 212.422 106.384 212.78 105.23L211.647 104.912C211.348 105.707 210.657 106.105 209.737 106.105C208.36 106.105 207.411 105.215 207.356 103.58H212.899V103.082C212.899 100.239 211.209 99.2642 209.618 99.2642C207.55 99.2642 206.178 100.895 206.178 103.241C206.178 105.588 207.53 107.159 209.737 107.159ZM207.356 102.565C207.436 101.377 208.276 100.318 209.618 100.318C210.891 100.318 211.706 101.273 211.706 102.565H207.356ZM215.858 102.406C215.858 101.074 216.683 100.318 217.806 100.318C218.895 100.318 219.556 101.029 219.556 102.227V107H220.73V102.148C220.73 100.199 219.691 99.2642 218.144 99.2642C216.991 99.2642 216.275 99.7812 215.917 100.557H215.818V99.3636H214.684V107H215.858V102.406ZM228.283 101.074C227.915 99.9901 227.09 99.2642 225.578 99.2642C223.967 99.2642 222.774 100.179 222.774 101.472C222.774 102.526 223.401 103.232 224.803 103.56L226.075 103.858C226.846 104.037 227.209 104.405 227.209 104.932C227.209 105.588 226.513 106.125 225.419 106.125C224.46 106.125 223.858 105.712 223.649 104.892L222.536 105.17C222.809 106.468 223.878 107.159 225.439 107.159C227.214 107.159 228.422 106.19 228.422 104.872C228.422 103.808 227.756 103.137 226.394 102.804L225.26 102.526C224.355 102.302 223.948 101.999 223.948 101.412C223.948 100.756 224.644 100.278 225.578 100.278C226.602 100.278 227.025 100.845 227.229 101.372L228.283 101.074Z" fill="#828282"/>
</svg>
